<svg xmlns="http://www.w3.org/2000/svg" viewBox="0 0 1440 1080">
    <rect fill="#152238" width="1440" height="1080"/>
    <defs>
        <linearGradient id="orange" x1="0" x2="0" y1="1" y2="0" gradientTransform="rotate(122,0.5,0.5)">
            <stop offset="0" stop-color="#F6D365"/>
            <stop offset="1" stop-color="#FFA17F"/>
        </linearGradient>
        <linearGradient id="blue" x1="0" x2="0" y1="0" y2="1" gradientTransform="rotate(242,0.5,0.5)">
            <stop offset="0" stop-color="#2193B0"/>
            <stop offset="1" stop-color="#6DD5ED"/>
        </linearGradient>
    </defs>
    <g fill="#FFF" fill-opacity="0">
        <g stroke="url(#orange)">
            <rect x="922" y="989" width="100" height="100" stroke-width="6.3"/>
            <path d="M 699 371 A 50 50 0 0 1 799 371 L 749 371 Z" stroke-width="9.6"/>
            <circle cx="862" cy="569" r="40" stroke-width="4.7"/>
            <path d="M1087 536 L1112 576 L1087 616 L1062 576 Z" stroke-width="4.2"/>
            <rect x="1276" y="37" width="100" height="100" stroke-width="4.4"/>
        </g>
        <g stroke="url(#blue)">
            <circle cx="364" cy="379" r="40" stroke-width="6.4"/>
            <circle cx="1145" cy="1065" r="40" stroke-width="7.8"/>
            <path d="M379 63 L422.3 143 L335.7 143 Z" stroke-width="8.9"/>
            <rect x="150" y="862" width="100" height="100" stroke-width="5.9"/>
            <path d="M356 507 L399.3 587 L312.7 587 Z" stroke-width="6.3"/>
        </g>
    </g>
</svg>
